<?xml version="1.0" encoding="UTF-8"?>
<svg xmlns="http://www.w3.org/2000/svg" xmlns:xlink="http://www.w3.org/1999/xlink" width="363pt" height="151pt" viewBox="0 0 363 151" version="1.2">
<defs>
<g>
<symbol overflow="visible" id="glyph0-0">
<path style="stroke:none;" d=""/>
</symbol>
<symbol overflow="visible" id="glyph0-1">
<path style="stroke:none;" d="M 4.78125 -1.875 C 4.203125 -1.03125 3.765625 -0.75 3.078125 -0.75 C 1.984375 -0.75 1.21875 -1.703125 1.21875 -3.078125 C 1.21875 -4.328125 1.890625 -5.171875 2.859375 -5.171875 C 3.28125 -5.171875 3.4375 -5.046875 3.5625 -4.59375 L 3.640625 -4.328125 C 3.734375 -3.984375 3.953125 -3.78125 4.21875 -3.78125 C 4.53125 -3.78125 4.78125 -4.015625 4.78125 -4.28125 C 4.78125 -4.953125 3.9375 -5.515625 2.921875 -5.515625 C 2.34375 -5.515625 1.734375 -5.28125 1.234375 -4.84375 C 0.640625 -4.3125 0.296875 -3.5 0.296875 -2.546875 C 0.296875 -1 1.25 0.125 2.578125 0.125 C 3.125 0.125 3.59375 -0.078125 4.03125 -0.4375 C 4.359375 -0.71875 4.578125 -1.0625 4.9375 -1.765625 Z M 4.78125 -1.875 "/>
</symbol>
<symbol overflow="visible" id="glyph0-2">
<path style="stroke:none;" d="M 3 -5.515625 C 1.421875 -5.515625 0.34375 -4.375 0.34375 -2.71875 C 0.34375 -1.078125 1.46875 0.125 2.96875 0.125 C 4.484375 0.125 5.640625 -1.140625 5.640625 -2.8125 C 5.640625 -4.390625 4.53125 -5.515625 3 -5.515625 Z M 2.84375 -5.1875 C 3.859375 -5.1875 4.5625 -4.03125 4.5625 -2.390625 C 4.5625 -1.015625 4.015625 -0.21875 3.125 -0.21875 C 2.65625 -0.21875 2.203125 -0.5 1.953125 -0.984375 C 1.625 -1.609375 1.421875 -2.453125 1.421875 -3.296875 C 1.421875 -4.4375 1.984375 -5.1875 2.84375 -5.1875 Z M 2.84375 -5.1875 "/>
</symbol>
<symbol overflow="visible" id="glyph0-3">
<path style="stroke:none;" d="M 0.25 0 L 3.078125 0 L 3.078125 -0.1875 C 2.328125 -0.21875 2.203125 -0.34375 2.1875 -1.015625 L 2.1875 -8.171875 L 2.140625 -8.203125 C 1.53125 -8 1.078125 -7.875 0.234375 -7.671875 L 0.234375 -7.46875 L 0.296875 -7.46875 C 0.4375 -7.484375 0.578125 -7.5 0.671875 -7.5 C 1.0625 -7.5 1.171875 -7.328125 1.171875 -6.765625 L 1.171875 -1.046875 C 1.15625 -0.390625 1 -0.234375 0.25 -0.1875 Z M 0.25 0 "/>
</symbol>
<symbol overflow="visible" id="glyph0-4">
<path style="stroke:none;" d="M 5.890625 -0.703125 C 5.734375 -0.6875 5.65625 -0.6875 5.609375 -0.6875 C 5.203125 -0.6875 5.09375 -0.8125 5.09375 -1.375 L 5.09375 -8.171875 L 5.03125 -8.203125 C 4.46875 -8 4.0625 -7.875 3.265625 -7.671875 L 3.265625 -7.46875 C 3.359375 -7.484375 3.421875 -7.484375 3.53125 -7.484375 C 3.96875 -7.484375 4.078125 -7.375 4.078125 -6.875 L 4.078125 -5 C 3.625 -5.390625 3.296875 -5.515625 2.8125 -5.515625 C 1.4375 -5.515625 0.328125 -4.15625 0.328125 -2.453125 C 0.328125 -0.921875 1.21875 0.125 2.546875 0.125 C 3.21875 0.125 3.671875 -0.125 4.078125 -0.6875 L 4.078125 0.078125 L 4.125 0.125 L 5.890625 -0.5 Z M 4.078125 -1.21875 C 4.078125 -1.140625 4 -1 3.875 -0.859375 C 3.671875 -0.625 3.359375 -0.5 3.015625 -0.5 C 2 -0.5 1.359375 -1.46875 1.359375 -2.953125 C 1.359375 -4.296875 1.9375 -5.1875 2.859375 -5.1875 C 3.5 -5.1875 4.078125 -4.625 4.078125 -3.984375 Z M 4.078125 -1.21875 "/>
</symbol>
<symbol overflow="visible" id="glyph0-5">
<path style="stroke:none;" d="M 6.859375 -5.40625 L 6.859375 -5.21875 C 7.265625 -5.140625 7.375 -5.046875 7.375 -4.84375 C 7.375 -4.671875 7.3125 -4.375 7.171875 -4.0625 L 6.09375 -1.390625 L 5.09375 -4.078125 C 4.890625 -4.625 4.890625 -4.625 4.890625 -4.78125 C 4.890625 -5.046875 5.015625 -5.140625 5.578125 -5.21875 L 5.578125 -5.40625 L 3.140625 -5.40625 L 3.140625 -5.21875 C 3.59375 -5.171875 3.734375 -5.03125 3.96875 -4.390625 C 4.03125 -4.21875 4.140625 -3.921875 4.21875 -3.71875 L 3.125 -1.328125 L 1.9375 -4.46875 C 1.890625 -4.578125 1.859375 -4.703125 1.859375 -4.828125 C 1.859375 -5.078125 1.984375 -5.171875 2.40625 -5.21875 L 2.40625 -5.40625 L 0.25 -5.40625 L 0.25 -5.21875 C 0.53125 -5.203125 0.625 -5.078125 0.890625 -4.46875 L 2.515625 -0.359375 C 2.65625 0.015625 2.75 0.171875 2.8125 0.171875 C 2.875 0.171875 2.96875 0.03125 3.125 -0.296875 L 4.46875 -3.1875 L 5.5625 -0.34375 C 5.734375 0.109375 5.765625 0.171875 5.84375 0.171875 C 5.921875 0.171875 5.984375 0.0625 6.1875 -0.421875 L 7.84375 -4.578125 C 8.046875 -5.078125 8.09375 -5.140625 8.328125 -5.21875 L 8.328125 -5.40625 Z M 6.859375 -5.40625 "/>
</symbol>
<symbol overflow="visible" id="glyph0-6">
<path style="stroke:none;" d="M 5.296875 -0.796875 C 5.09375 -0.625 4.953125 -0.5625 4.78125 -0.5625 C 4.5 -0.5625 4.421875 -0.734375 4.421875 -1.265625 L 4.421875 -3.59375 C 4.421875 -4.21875 4.359375 -4.578125 4.171875 -4.859375 C 3.90625 -5.296875 3.390625 -5.515625 2.6875 -5.515625 C 1.5625 -5.515625 0.671875 -4.9375 0.671875 -4.171875 C 0.671875 -3.90625 0.90625 -3.65625 1.1875 -3.65625 C 1.46875 -3.65625 1.734375 -3.90625 1.734375 -4.15625 C 1.734375 -4.21875 1.71875 -4.265625 1.703125 -4.359375 C 1.6875 -4.46875 1.671875 -4.5625 1.671875 -4.640625 C 1.671875 -4.96875 2.046875 -5.234375 2.53125 -5.234375 C 3.125 -5.234375 3.4375 -4.890625 3.4375 -4.234375 L 3.4375 -3.5 C 1.609375 -2.765625 1.390625 -2.65625 0.875 -2.203125 C 0.609375 -1.96875 0.4375 -1.5625 0.4375 -1.15625 C 0.4375 -0.40625 0.96875 0.125 1.703125 0.125 C 2.234375 0.125 2.71875 -0.125 3.453125 -0.75 C 3.515625 -0.125 3.734375 0.125 4.21875 0.125 C 4.625 0.125 4.890625 -0.03125 5.296875 -0.484375 Z M 3.4375 -1.46875 C 3.4375 -1.109375 3.390625 -0.984375 3.125 -0.84375 C 2.828125 -0.671875 2.515625 -0.578125 2.25 -0.578125 C 1.84375 -0.578125 1.5 -0.984375 1.5 -1.5 L 1.5 -1.546875 C 1.515625 -2.265625 2.046875 -2.71875 3.4375 -3.21875 Z M 3.4375 -1.46875 "/>
</symbol>
<symbol overflow="visible" id="glyph0-7">
<path style="stroke:none;" d="M 3.0625 -5.40625 L 1.84375 -5.40625 L 1.84375 -6.796875 C 1.84375 -6.90625 1.828125 -6.953125 1.765625 -6.953125 C 1.0625 -5.9375 0.703125 -5.53125 0.359375 -5.328125 C 0.234375 -5.25 0.15625 -5.171875 0.15625 -5.09375 C 0.15625 -5.0625 0.171875 -5.046875 0.203125 -5.015625 L 0.84375 -5.015625 L 0.84375 -1.40625 C 0.84375 -0.390625 1.203125 0.125 1.90625 0.125 C 2.5 0.125 2.953125 -0.171875 3.34375 -0.796875 L 3.1875 -0.921875 C 2.921875 -0.609375 2.734375 -0.5 2.46875 -0.5 C 2.03125 -0.5 1.84375 -0.828125 1.84375 -1.578125 L 1.84375 -5.015625 L 3.0625 -5.015625 Z M 3.0625 -5.40625 "/>
</symbol>
<symbol overflow="visible" id="glyph0-8">
<path style="stroke:none;" d="M 4.890625 -1.96875 C 4.3125 -1.0625 3.796875 -0.703125 3.03125 -0.703125 C 2.359375 -0.703125 1.84375 -1.0625 1.484375 -1.734375 C 1.265625 -2.203125 1.1875 -2.578125 1.15625 -3.328125 L 4.859375 -3.328125 C 4.765625 -4.109375 4.640625 -4.453125 4.34375 -4.84375 C 3.984375 -5.265625 3.4375 -5.515625 2.8125 -5.515625 C 2.203125 -5.515625 1.640625 -5.296875 1.1875 -4.890625 C 0.625 -4.40625 0.296875 -3.546875 0.296875 -2.5625 C 0.296875 -0.90625 1.15625 0.125 2.546875 0.125 C 3.6875 0.125 4.578125 -0.59375 5.09375 -1.890625 Z M 1.1875 -3.703125 C 1.3125 -4.640625 1.734375 -5.09375 2.453125 -5.09375 C 3.1875 -5.09375 3.484375 -4.75 3.640625 -3.703125 Z M 1.1875 -3.703125 "/>
</symbol>
<symbol overflow="visible" id="glyph0-9">
<path style="stroke:none;" d="M 0.0625 0 L 2.9375 0 L 2.9375 -0.1875 C 2.140625 -0.203125 1.9375 -0.375 1.921875 -1.078125 L 1.921875 -3.78125 C 1.921875 -4.15625 2.421875 -4.765625 2.765625 -4.765625 C 2.828125 -4.765625 2.9375 -4.703125 3.078125 -4.578125 C 3.25 -4.40625 3.390625 -4.34375 3.546875 -4.34375 C 3.84375 -4.34375 4.015625 -4.546875 4.015625 -4.890625 C 4.015625 -5.28125 3.765625 -5.515625 3.359375 -5.515625 C 2.859375 -5.515625 2.515625 -5.25 1.921875 -4.390625 L 1.921875 -5.5 L 1.859375 -5.515625 C 1.1875 -5.25 0.75 -5.09375 0.078125 -4.875 L 0.078125 -4.6875 C 0.25 -4.71875 0.359375 -4.734375 0.5 -4.734375 C 0.796875 -4.734375 0.90625 -4.53125 0.90625 -4.015625 L 0.90625 -1.015625 C 0.890625 -0.390625 0.8125 -0.3125 0.0625 -0.1875 Z M 0.0625 0 "/>
</symbol>
<symbol overflow="visible" id="glyph0-10">
<path style="stroke:none;" d="M 5.84375 -0.1875 C 5.203125 -0.28125 5.140625 -0.375 5.125 -1.21875 L 5.125 -3.609375 C 5.125 -4.875 4.625 -5.515625 3.640625 -5.515625 C 2.9375 -5.515625 2.4375 -5.234375 1.890625 -4.515625 L 1.890625 -8.15625 L 1.828125 -8.203125 C 1.40625 -8.046875 1.109375 -7.953125 0.4375 -7.765625 L 0.125 -7.671875 L 0.125 -7.46875 C 0.171875 -7.484375 0.1875 -7.484375 0.265625 -7.484375 C 0.78125 -7.484375 0.875 -7.390625 0.875 -6.875 L 0.875 -1.21875 C 0.859375 -0.359375 0.796875 -0.265625 0.109375 -0.1875 L 0.109375 0 L 2.703125 0 L 2.703125 -0.1875 C 2 -0.234375 1.90625 -0.375 1.890625 -1.21875 L 1.890625 -4.109375 C 2.390625 -4.671875 2.75 -4.875 3.234375 -4.875 C 3.8125 -4.875 4.109375 -4.4375 4.109375 -3.59375 L 4.109375 -1.21875 C 4.09375 -0.375 3.984375 -0.234375 3.296875 -0.1875 L 3.296875 0 L 5.84375 0 Z M 5.84375 -0.1875 "/>
</symbol>
<symbol overflow="visible" id="glyph0-11">
<path style="stroke:none;" d="M 0.1875 0 L 2.859375 0 L 2.859375 -0.1875 C 2.25 -0.1875 2.046875 -0.328125 2.046875 -0.796875 L 2.046875 -4.1875 C 2.046875 -4.21875 2.140625 -4.328125 2.21875 -4.421875 C 2.515625 -4.6875 3.03125 -4.890625 3.453125 -4.890625 C 3.984375 -4.890625 4.25 -4.46875 4.25 -3.640625 L 4.25 -1.03125 C 4.21875 -0.34375 4.109375 -0.21875 3.4375 -0.1875 L 3.4375 0 L 6.125 0 L 6.125 -0.1875 C 5.453125 -0.1875 5.28125 -0.375 5.25 -1.140625 L 5.25 -4.15625 C 5.609375 -4.6875 6 -4.890625 6.5625 -4.890625 C 7.25 -4.890625 7.46875 -4.578125 7.46875 -3.578125 L 7.46875 -1.046875 C 7.4375 -0.34375 7.375 -0.25 6.671875 -0.1875 L 6.671875 0 L 9.296875 0 L 9.296875 -0.1875 L 8.984375 -0.203125 C 8.609375 -0.265625 8.46875 -0.4375 8.46875 -0.90625 L 8.46875 -3.390625 C 8.46875 -4.796875 8 -5.515625 7.078125 -5.515625 C 6.390625 -5.515625 5.765625 -5.203125 5.125 -4.515625 C 4.90625 -5.203125 4.5 -5.515625 3.859375 -5.515625 C 3.3125 -5.515625 2.984375 -5.359375 1.984375 -4.59375 L 1.984375 -5.5 L 1.90625 -5.515625 C 1.265625 -5.296875 0.859375 -5.15625 0.234375 -4.984375 L 0.234375 -4.78125 C 0.375 -4.8125 0.484375 -4.828125 0.609375 -4.828125 C 0.921875 -4.828125 1.03125 -4.625 1.03125 -4.0625 L 1.03125 -1.015625 C 1.015625 -0.34375 0.859375 -0.1875 0.1875 -0.1875 Z M 0.1875 0 "/>
</symbol>
<symbol overflow="visible" id="glyph1-0">
<path style="stroke:none;" d=""/>
</symbol>
<symbol overflow="visible" id="glyph1-1">
<path style="stroke:none;" d="M 6.28125 -4.953125 L 6.28125 -4.78125 C 6.65625 -4.703125 6.765625 -4.625 6.765625 -4.4375 C 6.765625 -4.28125 6.703125 -4.015625 6.578125 -3.71875 L 5.59375 -1.28125 L 4.65625 -3.734375 C 4.484375 -4.25 4.484375 -4.25 4.484375 -4.390625 C 4.484375 -4.625 4.59375 -4.703125 5.109375 -4.78125 L 5.109375 -4.953125 L 2.875 -4.953125 L 2.875 -4.78125 C 3.28125 -4.734375 3.421875 -4.609375 3.640625 -4.03125 C 3.703125 -3.875 3.796875 -3.59375 3.859375 -3.40625 L 2.859375 -1.21875 L 1.765625 -4.09375 C 1.734375 -4.203125 1.703125 -4.3125 1.703125 -4.421875 C 1.703125 -4.65625 1.828125 -4.734375 2.21875 -4.78125 L 2.21875 -4.953125 L 0.234375 -4.953125 L 0.234375 -4.78125 C 0.484375 -4.765625 0.578125 -4.65625 0.8125 -4.09375 L 2.296875 -0.328125 C 2.4375 0.015625 2.515625 0.15625 2.578125 0.15625 C 2.640625 0.15625 2.734375 0.015625 2.859375 -0.28125 L 4.09375 -2.921875 L 5.09375 -0.3125 C 5.265625 0.09375 5.28125 0.15625 5.359375 0.15625 C 5.4375 0.15625 5.484375 0.0625 5.671875 -0.390625 L 7.1875 -4.1875 C 7.375 -4.65625 7.40625 -4.703125 7.640625 -4.78125 L 7.640625 -4.953125 Z M 6.28125 -4.953125 "/>
</symbol>
<symbol overflow="visible" id="glyph1-2">
<path style="stroke:none;" d="M 4.859375 -0.71875 C 4.671875 -0.578125 4.546875 -0.515625 4.375 -0.515625 C 4.125 -0.515625 4.046875 -0.671875 4.046875 -1.15625 L 4.046875 -3.296875 C 4.046875 -3.875 4 -4.1875 3.828125 -4.453125 C 3.59375 -4.84375 3.109375 -5.0625 2.46875 -5.0625 C 1.4375 -5.0625 0.609375 -4.515625 0.609375 -3.828125 C 0.609375 -3.578125 0.828125 -3.359375 1.09375 -3.359375 C 1.359375 -3.359375 1.578125 -3.578125 1.578125 -3.8125 C 1.578125 -3.859375 1.578125 -3.921875 1.5625 -4 C 1.546875 -4.09375 1.53125 -4.1875 1.53125 -4.25 C 1.53125 -4.546875 1.875 -4.796875 2.328125 -4.796875 C 2.859375 -4.796875 3.15625 -4.484375 3.15625 -3.890625 L 3.15625 -3.21875 C 1.46875 -2.546875 1.28125 -2.4375 0.796875 -2.03125 C 0.5625 -1.796875 0.40625 -1.4375 0.40625 -1.0625 C 0.40625 -0.375 0.890625 0.109375 1.5625 0.109375 C 2.046875 0.109375 2.5 -0.125 3.171875 -0.6875 C 3.21875 -0.109375 3.421875 0.109375 3.875 0.109375 C 4.25 0.109375 4.484375 -0.015625 4.859375 -0.4375 Z M 3.15625 -1.359375 C 3.15625 -1.015625 3.109375 -0.90625 2.875 -0.765625 C 2.59375 -0.609375 2.296875 -0.53125 2.0625 -0.53125 C 1.6875 -0.53125 1.375 -0.90625 1.375 -1.375 L 1.375 -1.421875 C 1.390625 -2.078125 1.875 -2.5 3.15625 -2.953125 Z M 3.15625 -1.359375 "/>
</symbol>
<symbol overflow="visible" id="glyph1-3">
<path style="stroke:none;" d="M 0.0625 0 L 2.6875 0 L 2.6875 -0.171875 C 1.953125 -0.1875 1.78125 -0.34375 1.765625 -0.984375 L 1.765625 -3.46875 C 1.765625 -3.8125 2.21875 -4.359375 2.53125 -4.359375 C 2.59375 -4.359375 2.6875 -4.3125 2.8125 -4.203125 C 2.984375 -4.03125 3.109375 -3.984375 3.25 -3.984375 C 3.515625 -3.984375 3.6875 -4.171875 3.6875 -4.484375 C 3.6875 -4.84375 3.453125 -5.0625 3.078125 -5.0625 C 2.625 -5.0625 2.3125 -4.8125 1.765625 -4.03125 L 1.765625 -5.03125 L 1.703125 -5.0625 C 1.09375 -4.8125 0.6875 -4.65625 0.078125 -4.46875 L 0.078125 -4.296875 C 0.234375 -4.328125 0.328125 -4.328125 0.46875 -4.328125 C 0.734375 -4.328125 0.84375 -4.15625 0.84375 -3.671875 L 0.84375 -0.921875 C 0.8125 -0.359375 0.75 -0.28125 0.0625 -0.171875 Z M 0.0625 0 "/>
</symbol>
<symbol overflow="visible" id="glyph1-4">
<path style="stroke:none;" d="M 0.171875 0 L 2.625 0 L 2.625 -0.171875 C 2.0625 -0.171875 1.875 -0.296875 1.875 -0.734375 L 1.875 -3.84375 C 1.875 -3.859375 1.953125 -3.96875 2.03125 -4.046875 C 2.3125 -4.296875 2.78125 -4.484375 3.171875 -4.484375 C 3.65625 -4.484375 3.890625 -4.109375 3.890625 -3.328125 L 3.890625 -0.953125 C 3.875 -0.3125 3.765625 -0.203125 3.140625 -0.171875 L 3.140625 0 L 5.609375 0 L 5.609375 -0.171875 C 5 -0.171875 4.84375 -0.34375 4.8125 -1.046875 L 4.8125 -3.8125 C 5.140625 -4.296875 5.5 -4.484375 6.015625 -4.484375 C 6.640625 -4.484375 6.84375 -4.1875 6.84375 -3.28125 L 6.84375 -0.953125 C 6.8125 -0.3125 6.75 -0.234375 6.109375 -0.171875 L 6.109375 0 L 8.53125 0 L 8.53125 -0.171875 L 8.234375 -0.1875 C 7.890625 -0.234375 7.765625 -0.40625 7.765625 -0.84375 L 7.765625 -3.109375 C 7.765625 -4.40625 7.34375 -5.0625 6.484375 -5.0625 C 5.859375 -5.0625 5.296875 -4.78125 4.703125 -4.140625 C 4.5 -4.765625 4.125 -5.0625 3.53125 -5.0625 C 3.03125 -5.0625 2.734375 -4.921875 1.828125 -4.21875 L 1.828125 -5.03125 L 1.75 -5.0625 C 1.171875 -4.84375 0.796875 -4.734375 0.203125 -4.5625 L 0.203125 -4.375 C 0.34375 -4.40625 0.4375 -4.421875 0.5625 -4.421875 C 0.84375 -4.421875 0.953125 -4.25 0.953125 -3.71875 L 0.953125 -0.9375 C 0.921875 -0.3125 0.78125 -0.171875 0.171875 -0.171875 Z M 0.171875 0 "/>
</symbol>
<symbol overflow="visible" id="glyph1-5">
<path style="stroke:none;" d="M 5.171875 -4.265625 L 5.171875 -4.703125 L 4.328125 -4.703125 C 4.09375 -4.703125 3.9375 -4.734375 3.71875 -4.8125 L 3.46875 -4.890625 C 3.1875 -5 2.875 -5.0625 2.59375 -5.0625 C 1.578125 -5.0625 0.765625 -4.28125 0.765625 -3.265625 C 0.765625 -2.578125 1.046875 -2.15625 1.78125 -1.796875 L 1.5 -1.53125 C 1.265625 -1.3125 1.140625 -1.1875 1.09375 -1.140625 C 0.875 -0.90625 0.796875 -0.78125 0.796875 -0.59375 C 0.796875 -0.359375 0.921875 -0.234375 1.390625 -0.015625 C 0.59375 0.5625 0.3125 0.921875 0.3125 1.328125 C 0.3125 1.90625 1.15625 2.390625 2.21875 2.390625 C 3.03125 2.390625 3.890625 2.109375 4.46875 1.65625 C 4.890625 1.3125 5.078125 0.953125 5.078125 0.53125 C 5.078125 -0.140625 4.546875 -0.59375 3.734375 -0.640625 L 2.328125 -0.703125 C 1.734375 -0.71875 1.46875 -0.828125 1.46875 -1 C 1.46875 -1.21875 1.828125 -1.609375 2.125 -1.6875 C 2.515625 -1.65625 2.734375 -1.640625 2.75 -1.640625 C 3.15625 -1.640625 3.59375 -1.796875 3.9375 -2.09375 C 4.296875 -2.40625 4.46875 -2.796875 4.46875 -3.34375 C 4.46875 -3.65625 4.40625 -3.921875 4.25 -4.265625 Z M 1.609375 0.015625 C 1.984375 0.09375 2.84375 0.171875 3.40625 0.171875 C 4.40625 0.171875 4.765625 0.3125 4.765625 0.703125 C 4.765625 1.34375 3.921875 1.765625 2.6875 1.765625 C 1.703125 1.765625 1.078125 1.453125 1.078125 0.96875 C 1.078125 0.71875 1.171875 0.546875 1.609375 0.015625 Z M 1.671875 -3.71875 C 1.671875 -4.359375 1.984375 -4.75 2.484375 -4.75 C 2.828125 -4.75 3.109375 -4.5625 3.28125 -4.234375 C 3.5 -3.84375 3.625 -3.359375 3.625 -2.921875 C 3.625 -2.296875 3.3125 -1.90625 2.8125 -1.90625 C 2.125 -1.90625 1.671875 -2.625 1.671875 -3.6875 Z M 1.671875 -3.71875 "/>
</symbol>
<symbol overflow="visible" id="glyph1-6">
<path style="stroke:none;" d="M 4.484375 -1.796875 C 3.953125 -0.96875 3.484375 -0.65625 2.78125 -0.65625 C 2.15625 -0.65625 1.6875 -0.96875 1.359375 -1.59375 C 1.171875 -2.015625 1.09375 -2.359375 1.0625 -3.046875 L 4.453125 -3.046875 C 4.359375 -3.765625 4.25 -4.078125 3.984375 -4.4375 C 3.65625 -4.828125 3.140625 -5.0625 2.578125 -5.0625 C 2.03125 -5.0625 1.5 -4.859375 1.09375 -4.484375 C 0.578125 -4.03125 0.28125 -3.25 0.28125 -2.359375 C 0.28125 -0.84375 1.0625 0.109375 2.328125 0.109375 C 3.375 0.109375 4.203125 -0.53125 4.65625 -1.734375 Z M 1.09375 -3.40625 C 1.203125 -4.25 1.578125 -4.65625 2.25 -4.65625 C 2.921875 -4.65625 3.1875 -4.359375 3.328125 -3.40625 Z M 1.09375 -3.40625 "/>
</symbol>
<symbol overflow="visible" id="glyph1-7">
<path style="stroke:none;" d="M 2.8125 -4.953125 L 1.6875 -4.953125 L 1.6875 -6.21875 C 1.6875 -6.34375 1.671875 -6.375 1.609375 -6.375 C 0.984375 -5.4375 0.65625 -5.078125 0.328125 -4.890625 C 0.203125 -4.8125 0.140625 -4.734375 0.140625 -4.671875 C 0.140625 -4.640625 0.15625 -4.625 0.1875 -4.59375 L 0.765625 -4.59375 L 0.765625 -1.28125 C 0.765625 -0.359375 1.09375 0.109375 1.75 0.109375 C 2.28125 0.109375 2.703125 -0.15625 3.0625 -0.71875 L 2.921875 -0.84375 C 2.6875 -0.5625 2.515625 -0.46875 2.265625 -0.46875 C 1.859375 -0.46875 1.6875 -0.765625 1.6875 -1.453125 L 1.6875 -4.59375 L 2.8125 -4.59375 Z M 2.8125 -4.953125 "/>
</symbol>
<symbol overflow="visible" id="glyph1-8">
<path style="stroke:none;" d="M 3.46875 -3.453125 L 3.421875 -4.96875 L 3.296875 -4.96875 C 3.25 -4.875 3.1875 -4.84375 3.125 -4.84375 C 3.0625 -4.84375 2.953125 -4.859375 2.828125 -4.921875 C 2.578125 -5 2.328125 -5.0625 2.0625 -5.0625 C 1.1875 -5.0625 0.5625 -4.484375 0.5625 -3.703125 C 0.5625 -3.078125 0.90625 -2.640625 1.84375 -2.109375 L 2.484375 -1.75 C 2.875 -1.53125 3.0625 -1.265625 3.0625 -0.921875 C 3.0625 -0.4375 2.703125 -0.125 2.140625 -0.125 C 1.390625 -0.125 1 -0.546875 0.75 -1.671875 L 0.578125 -1.671875 L 0.578125 0.046875 L 0.71875 0.046875 C 0.796875 -0.0625 0.84375 -0.09375 0.96875 -0.09375 C 1.09375 -0.09375 1.21875 -0.0625 1.46875 0 C 1.765625 0.0625 2.0625 0.109375 2.28125 0.109375 C 3.140625 0.109375 3.828125 -0.53125 3.828125 -1.296875 C 3.828125 -1.84375 3.5625 -2.21875 2.90625 -2.609375 L 1.71875 -3.3125 C 1.40625 -3.5 1.25 -3.765625 1.25 -4.0625 C 1.25 -4.515625 1.578125 -4.8125 2.09375 -4.8125 C 2.71875 -4.8125 3.046875 -4.4375 3.296875 -3.453125 Z M 3.46875 -3.453125 "/>
</symbol>
<symbol overflow="visible" id="glyph1-9">
<path style="stroke:none;" d="M 4.375 -1.71875 C 3.84375 -0.953125 3.453125 -0.6875 2.828125 -0.6875 C 1.8125 -0.6875 1.125 -1.5625 1.125 -2.828125 C 1.125 -3.96875 1.734375 -4.734375 2.625 -4.734375 C 3.015625 -4.734375 3.15625 -4.625 3.265625 -4.21875 L 3.328125 -3.96875 C 3.421875 -3.65625 3.625 -3.46875 3.859375 -3.46875 C 4.140625 -3.46875 4.375 -3.671875 4.375 -3.921875 C 4.375 -4.546875 3.609375 -5.0625 2.6875 -5.0625 C 2.140625 -5.0625 1.578125 -4.84375 1.140625 -4.4375 C 0.578125 -3.953125 0.28125 -3.21875 0.28125 -2.328125 C 0.28125 -0.90625 1.140625 0.109375 2.359375 0.109375 C 2.859375 0.109375 3.296875 -0.0625 3.703125 -0.40625 C 4 -0.65625 4.203125 -0.96875 4.53125 -1.609375 Z M 4.375 -1.71875 "/>
</symbol>
<symbol overflow="visible" id="glyph1-10">
<path style="stroke:none;" d="M 2.75 -5.0625 C 1.3125 -5.0625 0.3125 -4 0.3125 -2.484375 C 0.3125 -0.984375 1.34375 0.109375 2.734375 0.109375 C 4.109375 0.109375 5.171875 -1.046875 5.171875 -2.578125 C 5.171875 -4.03125 4.15625 -5.0625 2.75 -5.0625 Z M 2.609375 -4.75 C 3.53125 -4.75 4.1875 -3.703125 4.1875 -2.1875 C 4.1875 -0.9375 3.6875 -0.203125 2.859375 -0.203125 C 2.4375 -0.203125 2.03125 -0.46875 1.796875 -0.90625 C 1.484375 -1.46875 1.3125 -2.25 1.3125 -3.03125 C 1.3125 -4.0625 1.8125 -4.75 2.609375 -4.75 Z M 2.609375 -4.75 "/>
</symbol>
<symbol overflow="visible" id="glyph1-11">
<path style="stroke:none;" d="M 0.234375 0 L 2.828125 0 L 2.828125 -0.171875 C 2.140625 -0.203125 2.015625 -0.3125 2 -0.921875 L 2 -7.484375 L 1.953125 -7.515625 C 1.390625 -7.34375 0.984375 -7.21875 0.203125 -7.03125 L 0.203125 -6.859375 L 0.28125 -6.859375 C 0.390625 -6.859375 0.53125 -6.875 0.609375 -6.875 C 0.96875 -6.875 1.078125 -6.71875 1.078125 -6.203125 L 1.078125 -0.953125 C 1.0625 -0.359375 0.90625 -0.203125 0.234375 -0.171875 Z M 0.234375 0 "/>
</symbol>
</g>
<clipPath id="clip1">
  <path d="M 63 41 L 65 41 L 65 93 L 63 93 Z M 63 41 "/>
</clipPath>
<clipPath id="clip2">
  <path d="M 0 151 L 363 151 L 363 0 L 0 0 Z M 60.699219 83.378906 L 60.699219 92.5 L 67.898438 92.5 L 67.898438 83.378906 L 64.300781 90.582031 Z M 60.699219 83.378906 "/>
</clipPath>
</defs>
<g id="surface1">
<path style=" stroke:none;fill-rule:evenodd;fill:rgb(69.921875%,69.921875%,69.921875%);fill-opacity:1;" d="M 109.300781 136.601562 C 109.300781 144.054688 85.121094 150.101562 55.300781 150.101562 C 25.476562 150.101562 1.300781 144.054688 1.300781 136.601562 C 1.300781 129.144531 25.476562 123.101562 55.300781 123.101562 C 85.121094 123.101562 109.300781 129.144531 109.300781 136.601562 "/>
<path style="fill:none;stroke-width:9;stroke-linecap:butt;stroke-linejoin:miter;stroke:rgb(0%,0%,0%);stroke-opacity:1;stroke-miterlimit:10;" d="M 1093.007812 143.984375 C 1093.007812 69.453125 851.210938 8.984375 553.007812 8.984375 C 254.765625 8.984375 13.007812 69.453125 13.007812 143.984375 C 13.007812 218.554688 254.765625 278.984375 553.007812 278.984375 C 851.210938 278.984375 1093.007812 218.554688 1093.007812 143.984375 Z M 1093.007812 143.984375 " transform="matrix(0.1,0,0,-0.1,0,151)"/>
<path style=" stroke:none;fill-rule:evenodd;fill:rgb(69.921875%,69.921875%,69.921875%);fill-opacity:1;" d="M 235.300781 136.601562 C 235.300781 144.054688 211.121094 150.101562 181.300781 150.101562 C 151.476562 150.101562 127.300781 144.054688 127.300781 136.601562 C 127.300781 129.144531 151.476562 123.101562 181.300781 123.101562 C 211.121094 123.101562 235.300781 129.144531 235.300781 136.601562 "/>
<path style="fill:none;stroke-width:9;stroke-linecap:butt;stroke-linejoin:miter;stroke:rgb(0%,0%,0%);stroke-opacity:1;stroke-miterlimit:10;" d="M 2353.007812 143.984375 C 2353.007812 69.453125 2111.210938 8.984375 1813.007812 8.984375 C 1514.765625 8.984375 1273.007812 69.453125 1273.007812 143.984375 C 1273.007812 218.554688 1514.765625 278.984375 1813.007812 278.984375 C 2111.210938 278.984375 2353.007812 218.554688 2353.007812 143.984375 Z M 2353.007812 143.984375 " transform="matrix(0.1,0,0,-0.1,0,151)"/>
<path style=" stroke:none;fill-rule:evenodd;fill:rgb(69.921875%,69.921875%,69.921875%);fill-opacity:1;" d="M 361.300781 136.601562 C 361.300781 144.054688 337.121094 150.101562 307.300781 150.101562 C 277.476562 150.101562 253.300781 144.054688 253.300781 136.601562 C 253.300781 129.144531 277.476562 123.101562 307.300781 123.101562 C 337.121094 123.101562 361.300781 129.144531 361.300781 136.601562 "/>
<path style="fill:none;stroke-width:9;stroke-linecap:butt;stroke-linejoin:miter;stroke:rgb(0%,0%,0%);stroke-opacity:1;stroke-miterlimit:10;" d="M 3613.007812 143.984375 C 3613.007812 69.453125 3371.210938 8.984375 3073.007812 8.984375 C 2774.765625 8.984375 2533.007812 69.453125 2533.007812 143.984375 C 2533.007812 218.554688 2774.765625 278.984375 3073.007812 278.984375 C 3371.210938 278.984375 3613.007812 218.554688 3613.007812 143.984375 Z M 3613.007812 143.984375 " transform="matrix(0.1,0,0,-0.1,0,151)"/>
<path style=" stroke:none;fill-rule:evenodd;fill:rgb(69.921875%,69.921875%,69.921875%);fill-opacity:1;" d="M 1.300781 136.601562 L 109.300781 136.601562 L 109.300781 82.601562 L 1.300781 82.601562 Z M 1.300781 136.601562 "/>
<path style=" stroke:none;fill-rule:evenodd;fill:rgb(69.921875%,69.921875%,69.921875%);fill-opacity:1;" d="M 127.300781 136.601562 L 235.300781 136.601562 L 235.300781 82.601562 L 127.300781 82.601562 Z M 127.300781 136.601562 "/>
<path style=" stroke:none;fill-rule:evenodd;fill:rgb(69.921875%,69.921875%,69.921875%);fill-opacity:1;" d="M 253.300781 136.601562 L 361.300781 136.601562 L 361.300781 82.601562 L 253.300781 82.601562 Z M 253.300781 136.601562 "/>
<path style=" stroke:none;fill-rule:evenodd;fill:rgb(69.921875%,69.921875%,69.921875%);fill-opacity:1;" d="M 109.300781 82.601562 C 109.300781 90.054688 85.121094 96.101562 55.300781 96.101562 C 25.476562 96.101562 1.300781 90.054688 1.300781 82.601562 C 1.300781 75.144531 25.476562 69.101562 55.300781 69.101562 C 85.121094 69.101562 109.300781 75.144531 109.300781 82.601562 "/>
<path style="fill:none;stroke-width:4.5;stroke-linecap:butt;stroke-linejoin:miter;stroke:rgb(0%,0%,0%);stroke-opacity:1;stroke-miterlimit:10;" d="M 1093.007812 683.984375 C 1093.007812 609.453125 851.210938 548.984375 553.007812 548.984375 C 254.765625 548.984375 13.007812 609.453125 13.007812 683.984375 C 13.007812 758.554688 254.765625 818.984375 553.007812 818.984375 C 851.210938 818.984375 1093.007812 758.554688 1093.007812 683.984375 Z M 1093.007812 683.984375 " transform="matrix(0.1,0,0,-0.1,0,151)"/>
<path style="fill:none;stroke-width:9;stroke-linecap:butt;stroke-linejoin:miter;stroke:rgb(0%,0%,0%);stroke-opacity:1;stroke-dasharray:54;stroke-miterlimit:10;" d="M 1093.007812 143.984375 C 1093.007812 69.453125 851.210938 8.984375 553.007812 8.984375 C 254.765625 8.984375 13.007812 69.453125 13.007812 143.984375 C 13.007812 218.554688 254.765625 278.984375 553.007812 278.984375 C 851.210938 278.984375 1093.007812 218.554688 1093.007812 143.984375 Z M 1093.007812 143.984375 " transform="matrix(0.1,0,0,-0.1,0,151)"/>
<path style="fill:none;stroke-width:9;stroke-linecap:butt;stroke-linejoin:miter;stroke:rgb(0%,0%,0%);stroke-opacity:1;stroke-miterlimit:10;" d="M 13.007812 863.984375 L 13.007812 143.984375 " transform="matrix(0.1,0,0,-0.1,0,151)"/>
<path style="fill:none;stroke-width:9;stroke-linecap:butt;stroke-linejoin:miter;stroke:rgb(0%,0%,0%);stroke-opacity:1;stroke-miterlimit:10;" d="M 1093.007812 863.984375 L 1093.007812 143.984375 " transform="matrix(0.1,0,0,-0.1,0,151)"/>
<path style=" stroke:none;fill-rule:evenodd;fill:rgb(69.921875%,69.921875%,69.921875%);fill-opacity:1;" d="M 235.300781 82.601562 C 235.300781 90.054688 211.121094 96.101562 181.300781 96.101562 C 151.476562 96.101562 127.300781 90.054688 127.300781 82.601562 C 127.300781 75.144531 151.476562 69.101562 181.300781 69.101562 C 211.121094 69.101562 235.300781 75.144531 235.300781 82.601562 "/>
<path style="fill:none;stroke-width:4.5;stroke-linecap:butt;stroke-linejoin:miter;stroke:rgb(0%,0%,0%);stroke-opacity:1;stroke-miterlimit:10;" d="M 2353.007812 683.984375 C 2353.007812 609.453125 2111.210938 548.984375 1813.007812 548.984375 C 1514.765625 548.984375 1273.007812 609.453125 1273.007812 683.984375 C 1273.007812 758.554688 1514.765625 818.984375 1813.007812 818.984375 C 2111.210938 818.984375 2353.007812 758.554688 2353.007812 683.984375 Z M 2353.007812 683.984375 " transform="matrix(0.1,0,0,-0.1,0,151)"/>
<path style="fill:none;stroke-width:9;stroke-linecap:butt;stroke-linejoin:miter;stroke:rgb(0%,0%,0%);stroke-opacity:1;stroke-dasharray:54;stroke-miterlimit:10;" d="M 2353.007812 143.984375 C 2353.007812 69.453125 2111.210938 8.984375 1813.007812 8.984375 C 1514.765625 8.984375 1273.007812 69.453125 1273.007812 143.984375 C 1273.007812 218.554688 1514.765625 278.984375 1813.007812 278.984375 C 2111.210938 278.984375 2353.007812 218.554688 2353.007812 143.984375 Z M 2353.007812 143.984375 " transform="matrix(0.1,0,0,-0.1,0,151)"/>
<path style="fill:none;stroke-width:9;stroke-linecap:butt;stroke-linejoin:miter;stroke:rgb(0%,0%,0%);stroke-opacity:1;stroke-miterlimit:10;" d="M 1273.007812 863.984375 L 1273.007812 143.984375 " transform="matrix(0.1,0,0,-0.1,0,151)"/>
<path style="fill:none;stroke-width:9;stroke-linecap:butt;stroke-linejoin:miter;stroke:rgb(0%,0%,0%);stroke-opacity:1;stroke-miterlimit:10;" d="M 2353.007812 863.984375 L 2353.007812 143.984375 " transform="matrix(0.1,0,0,-0.1,0,151)"/>
<path style=" stroke:none;fill-rule:evenodd;fill:rgb(69.921875%,69.921875%,69.921875%);fill-opacity:1;" d="M 361.300781 82.601562 C 361.300781 90.054688 337.121094 96.101562 307.300781 96.101562 C 277.476562 96.101562 253.300781 90.054688 253.300781 82.601562 C 253.300781 75.144531 277.476562 69.101562 307.300781 69.101562 C 337.121094 69.101562 361.300781 75.144531 361.300781 82.601562 "/>
<path style="fill:none;stroke-width:4.5;stroke-linecap:butt;stroke-linejoin:miter;stroke:rgb(0%,0%,0%);stroke-opacity:1;stroke-miterlimit:10;" d="M 3613.007812 683.984375 C 3613.007812 609.453125 3371.210938 548.984375 3073.007812 548.984375 C 2774.765625 548.984375 2533.007812 609.453125 2533.007812 683.984375 C 2533.007812 758.554688 2774.765625 818.984375 3073.007812 818.984375 C 3371.210938 818.984375 3613.007812 758.554688 3613.007812 683.984375 Z M 3613.007812 683.984375 " transform="matrix(0.1,0,0,-0.1,0,151)"/>
<path style="fill:none;stroke-width:9;stroke-linecap:butt;stroke-linejoin:miter;stroke:rgb(0%,0%,0%);stroke-opacity:1;stroke-dasharray:54;stroke-miterlimit:10;" d="M 3613.007812 143.984375 C 3613.007812 69.453125 3371.210938 8.984375 3073.007812 8.984375 C 2774.765625 8.984375 2533.007812 69.453125 2533.007812 143.984375 C 2533.007812 218.554688 2774.765625 278.984375 3073.007812 278.984375 C 3371.210938 278.984375 3613.007812 218.554688 3613.007812 143.984375 Z M 3613.007812 143.984375 " transform="matrix(0.1,0,0,-0.1,0,151)"/>
<path style="fill:none;stroke-width:9;stroke-linecap:butt;stroke-linejoin:miter;stroke:rgb(0%,0%,0%);stroke-opacity:1;stroke-miterlimit:10;" d="M 2533.007812 863.984375 L 2533.007812 143.984375 " transform="matrix(0.1,0,0,-0.1,0,151)"/>
<path style="fill:none;stroke-width:9;stroke-linecap:butt;stroke-linejoin:miter;stroke:rgb(0%,0%,0%);stroke-opacity:1;stroke-miterlimit:10;" d="M 3613.007812 863.984375 L 3613.007812 143.984375 " transform="matrix(0.1,0,0,-0.1,0,151)"/>
<g clip-path="url(#clip1)" clip-rule="nonzero">
<g clip-path="url(#clip2)" clip-rule="evenodd">
<path style="fill:none;stroke-width:9;stroke-linecap:butt;stroke-linejoin:miter;stroke:rgb(0%,0%,0%);stroke-opacity:1;stroke-miterlimit:10;" d="M 643.007812 1088.984375 L 643.007812 593.984375 " transform="matrix(0.1,0,0,-0.1,0,151)"/>
</g>
</g>
<path style="fill-rule:evenodd;fill:rgb(0%,0%,0%);fill-opacity:1;stroke-width:9;stroke-linecap:butt;stroke-linejoin:miter;stroke:rgb(0%,0%,0%);stroke-opacity:1;stroke-miterlimit:10;" d="M 606.992188 676.210938 L 643.007812 604.179688 L 678.984375 676.210938 Z M 606.992188 676.210938 " transform="matrix(0.1,0,0,-0.1,0,151)"/>
<path style="fill-rule:evenodd;fill:rgb(100%,100%,100%);fill-opacity:1;stroke-width:9;stroke-linecap:butt;stroke-linejoin:bevel;stroke:rgb(0%,0%,0%);stroke-opacity:1;stroke-miterlimit:10;" d="M 823.007812 1403.984375 L 958.007812 1493.984375 L 958.007812 1178.984375 L 823.007812 1088.984375 Z M 823.007812 1403.984375 " transform="matrix(0.1,0,0,-0.1,0,151)"/>
<path style="fill:none;stroke-width:9;stroke-linecap:butt;stroke-linejoin:bevel;stroke:rgb(0%,0%,0%);stroke-opacity:1;stroke-miterlimit:10;" d="M 1093.007812 863.984375 C 1093.007812 789.453125 851.210938 728.984375 553.007812 728.984375 C 254.765625 728.984375 13.007812 789.453125 13.007812 863.984375 C 13.007812 938.554688 254.765625 998.984375 553.007812 998.984375 C 851.210938 998.984375 1093.007812 938.554688 1093.007812 863.984375 Z M 1093.007812 863.984375 " transform="matrix(0.1,0,0,-0.1,0,151)"/>
<path style="fill:none;stroke-width:9;stroke-linecap:butt;stroke-linejoin:bevel;stroke:rgb(0%,0%,0%);stroke-opacity:1;stroke-miterlimit:10;" d="M 2353.007812 863.984375 C 2353.007812 789.453125 2111.210938 728.984375 1813.007812 728.984375 C 1514.765625 728.984375 1273.007812 789.453125 1273.007812 863.984375 C 1273.007812 938.554688 1514.765625 998.984375 1813.007812 998.984375 C 2111.210938 998.984375 2353.007812 938.554688 2353.007812 863.984375 Z M 2353.007812 863.984375 " transform="matrix(0.1,0,0,-0.1,0,151)"/>
<path style="fill:none;stroke-width:9;stroke-linecap:butt;stroke-linejoin:bevel;stroke:rgb(0%,0%,0%);stroke-opacity:1;stroke-miterlimit:10;" d="M 3613.007812 863.984375 C 3613.007812 789.453125 3371.210938 728.984375 3073.007812 728.984375 C 2774.765625 728.984375 2533.007812 789.453125 2533.007812 863.984375 C 2533.007812 938.554688 2774.765625 998.984375 3073.007812 998.984375 C 3371.210938 998.984375 3613.007812 938.554688 3613.007812 863.984375 Z M 3613.007812 863.984375 " transform="matrix(0.1,0,0,-0.1,0,151)"/>
<path style="fill-rule:evenodd;fill:rgb(100%,100%,100%);fill-opacity:1;stroke-width:9;stroke-linecap:butt;stroke-linejoin:bevel;stroke:rgb(0%,0%,0%);stroke-opacity:1;stroke-miterlimit:10;" d="M 3343.007812 413.984375 L 3478.007812 503.984375 L 3478.007812 188.984375 L 3343.007812 98.984375 Z M 3343.007812 413.984375 " transform="matrix(0.1,0,0,-0.1,0,151)"/>
<path style="fill-rule:evenodd;fill:rgb(100%,100%,100%);fill-opacity:1;stroke-width:9;stroke-linecap:butt;stroke-linejoin:bevel;stroke:rgb(0%,0%,0%);stroke-opacity:1;stroke-miterlimit:10;" d="M 2083.007812 413.984375 L 2218.007812 503.984375 L 2218.007812 188.984375 L 2083.007812 98.984375 Z M 2083.007812 413.984375 " transform="matrix(0.1,0,0,-0.1,0,151)"/>
<path style="fill-rule:evenodd;fill:rgb(100%,100%,100%);fill-opacity:1;stroke-width:9;stroke-linecap:butt;stroke-linejoin:bevel;stroke:rgb(0%,0%,0%);stroke-opacity:1;stroke-miterlimit:10;" d="M 2983.007812 413.984375 L 3118.007812 503.984375 L 3478.007812 503.984375 L 3343.007812 413.984375 Z M 2983.007812 413.984375 " transform="matrix(0.1,0,0,-0.1,0,151)"/>
<path style="fill-rule:evenodd;fill:rgb(100%,100%,100%);fill-opacity:1;stroke-width:9;stroke-linecap:butt;stroke-linejoin:bevel;stroke:rgb(0%,0%,0%);stroke-opacity:1;stroke-miterlimit:10;" d="M 2983.007812 98.984375 L 3343.007812 98.984375 L 3343.007812 413.984375 L 2983.007812 413.984375 Z M 2983.007812 98.984375 " transform="matrix(0.1,0,0,-0.1,0,151)"/>
<path style="fill-rule:evenodd;fill:rgb(100%,100%,100%);fill-opacity:1;stroke-width:9;stroke-linecap:butt;stroke-linejoin:bevel;stroke:rgb(0%,0%,0%);stroke-opacity:1;stroke-miterlimit:10;" d="M 1723.007812 413.984375 L 1858.007812 503.984375 L 2218.007812 503.984375 L 2083.007812 413.984375 Z M 1723.007812 413.984375 " transform="matrix(0.1,0,0,-0.1,0,151)"/>
<path style="fill-rule:evenodd;fill:rgb(100%,100%,100%);fill-opacity:1;stroke-width:9;stroke-linecap:butt;stroke-linejoin:bevel;stroke:rgb(0%,0%,0%);stroke-opacity:1;stroke-miterlimit:10;" d="M 1723.007812 98.984375 L 2083.007812 98.984375 L 2083.007812 413.984375 L 1723.007812 413.984375 Z M 1723.007812 98.984375 " transform="matrix(0.1,0,0,-0.1,0,151)"/>
<path style="fill-rule:evenodd;fill:rgb(100%,100%,100%);fill-opacity:1;stroke-width:9;stroke-linecap:butt;stroke-linejoin:bevel;stroke:rgb(0%,0%,0%);stroke-opacity:1;stroke-miterlimit:10;" d="M 463.007812 1403.984375 L 598.007812 1493.984375 L 958.007812 1493.984375 L 823.007812 1403.984375 Z M 463.007812 1403.984375 " transform="matrix(0.1,0,0,-0.1,0,151)"/>
<path style="fill-rule:evenodd;fill:rgb(100%,100%,100%);fill-opacity:1;stroke-width:9;stroke-linecap:butt;stroke-linejoin:bevel;stroke:rgb(0%,0%,0%);stroke-opacity:1;stroke-miterlimit:10;" d="M 463.007812 1088.984375 L 823.007812 1088.984375 L 823.007812 1403.984375 L 463.007812 1403.984375 Z M 463.007812 1088.984375 " transform="matrix(0.1,0,0,-0.1,0,151)"/>
<path style="fill:none;stroke-width:9;stroke-linecap:butt;stroke-linejoin:bevel;stroke:rgb(0%,0%,0%);stroke-opacity:1;stroke-miterlimit:10;" d="M 1723.007812 188.984375 L 1722.382812 189.609375 L 1718.789062 192.617188 L 1711.601562 199.179688 L 1703.789062 205.820312 L 1696.015625 211.210938 L 1689.414062 215.390625 L 1683.984375 217.1875 L 1679.804688 217.1875 L 1675 216.601562 L 1670.195312 214.179688 L 1664.804688 210.585938 L 1660 206.992188 L 1649.21875 199.804688 L 1643.789062 197.382812 L 1638.984375 196.210938 L 1633.59375 196.796875 L 1627.617188 198.59375 L 1619.804688 202.8125 L 1610.78125 208.203125 L 1601.210938 214.804688 L 1592.8125 221.40625 L 1588.59375 224.414062 L 1588.007812 225 " transform="matrix(0.1,0,0,-0.1,0,151)"/>
<path style="fill:none;stroke-width:9;stroke-linecap:butt;stroke-linejoin:bevel;stroke:rgb(0%,0%,0%);stroke-opacity:1;stroke-miterlimit:10;" d="M 1885 481.796875 L 1885.585938 482.382812 L 1888.59375 486.015625 L 1895.195312 493.203125 L 1901.796875 501.015625 L 1907.1875 508.789062 L 1911.40625 515.390625 L 1913.203125 520.820312 L 1913.789062 525 L 1912.617188 529.804688 L 1910.195312 534.609375 L 1906.601562 540 L 1903.007812 544.804688 L 1899.414062 550.195312 L 1895.78125 555.585938 L 1893.398438 561.015625 L 1892.8125 565.820312 L 1892.8125 571.210938 L 1894.609375 577.1875 L 1898.789062 585 L 1904.21875 593.984375 L 1910.78125 603.59375 L 1917.382812 611.992188 L 1920.390625 616.210938 L 1921.015625 616.796875 " transform="matrix(0.1,0,0,-0.1,0,151)"/>
<path style="fill:none;stroke-width:9;stroke-linecap:butt;stroke-linejoin:bevel;stroke:rgb(0%,0%,0%);stroke-opacity:1;stroke-miterlimit:10;" d="M 2015.195312 481.796875 L 2015.78125 482.382812 L 2018.789062 486.015625 L 2025.390625 493.203125 L 2031.992188 501.015625 L 2037.382812 508.789062 L 2041.601562 515.390625 L 2043.398438 520.820312 L 2043.984375 525 L 2042.8125 529.804688 L 2040.390625 534.609375 L 2036.796875 540 L 2033.203125 544.804688 L 2026.015625 555.585938 L 2023.59375 561.015625 L 2023.007812 565.820312 L 2023.007812 571.210938 L 2024.804688 577.1875 L 2028.984375 585 L 2034.414062 593.984375 L 2041.015625 603.59375 L 2047.617188 611.992188 L 2050.585938 616.210938 L 2051.210938 616.796875 " transform="matrix(0.1,0,0,-0.1,0,151)"/>
<path style="fill:none;stroke-width:9;stroke-linecap:butt;stroke-linejoin:bevel;stroke:rgb(0%,0%,0%);stroke-opacity:1;stroke-miterlimit:10;" d="M 2163.984375 238.789062 L 2164.609375 239.414062 L 2168.203125 242.382812 L 2175.390625 248.984375 L 2183.203125 255.585938 L 2191.015625 261.015625 L 2197.617188 265.195312 L 2203.007812 266.992188 L 2207.8125 266.992188 L 2211.992188 266.40625 L 2216.796875 263.984375 L 2222.1875 260.390625 L 2226.992188 256.796875 L 2232.382812 253.203125 L 2237.8125 249.609375 L 2243.203125 247.1875 L 2248.007812 246.015625 L 2253.398438 246.601562 L 2259.414062 248.398438 L 2267.1875 252.617188 L 2276.210938 258.007812 L 2285.78125 264.609375 L 2294.21875 271.210938 L 2298.398438 274.179688 L 2298.984375 274.804688 " transform="matrix(0.1,0,0,-0.1,0,151)"/>
<path style="fill:none;stroke-width:9;stroke-linecap:butt;stroke-linejoin:bevel;stroke:rgb(0%,0%,0%);stroke-opacity:1;stroke-miterlimit:10;" d="M 2177.1875 333.007812 L 2177.8125 333.59375 L 2181.40625 336.601562 L 2188.59375 343.203125 L 2196.40625 349.804688 L 2204.21875 355.195312 L 2210.78125 359.414062 L 2216.210938 361.210938 L 2221.015625 361.210938 L 2225.195312 360.585938 L 2230 358.203125 L 2235.390625 354.609375 L 2240.195312 351.015625 L 2245.585938 347.382812 L 2251.015625 343.789062 L 2256.40625 341.40625 L 2261.210938 340.195312 L 2266.601562 340.820312 L 2272.617188 342.617188 L 2280.390625 346.796875 L 2289.414062 352.1875 L 2298.984375 358.789062 L 2307.382812 365.390625 L 2311.601562 368.398438 L 2312.1875 368.984375 " transform="matrix(0.1,0,0,-0.1,0,151)"/>
<path style="fill:none;stroke-width:9;stroke-linecap:butt;stroke-linejoin:bevel;stroke:rgb(0%,0%,0%);stroke-opacity:1;stroke-miterlimit:10;" d="M 1713.984375 315 L 1713.398438 315.585938 L 1709.804688 318.59375 L 1702.617188 325.195312 L 1694.804688 331.796875 L 1686.992188 337.1875 L 1680.390625 341.40625 L 1675 343.203125 L 1670.78125 343.203125 L 1666.015625 342.617188 L 1661.210938 340.195312 L 1655.78125 336.601562 L 1651.015625 333.007812 L 1645.585938 329.414062 L 1640.195312 325.820312 L 1634.804688 323.398438 L 1630 322.1875 L 1624.609375 322.8125 L 1618.59375 324.609375 L 1610.78125 328.789062 L 1601.796875 334.179688 L 1592.1875 340.820312 L 1583.789062 347.382812 L 1579.609375 350.390625 L 1578.984375 351.015625 " transform="matrix(0.1,0,0,-0.1,0,151)"/>
<g style="fill:rgb(0%,0%,0%);fill-opacity:1;">
  <use xlink:href="#glyph0-1" x="10.3" y="105.1"/>
  <use xlink:href="#glyph0-2" x="15.628" y="105.1"/>
  <use xlink:href="#glyph0-3" x="21.628" y="105.1"/>
  <use xlink:href="#glyph0-4" x="24.964" y="105.1"/>
</g>
<g style="fill:rgb(0%,0%,0%);fill-opacity:1;">
  <use xlink:href="#glyph1-1" x="303.777" y="127.6"/>
  <use xlink:href="#glyph1-2" x="311.718856" y="127.6"/>
  <use xlink:href="#glyph1-3" x="316.602767" y="127.6"/>
  <use xlink:href="#glyph1-4" x="320.2657" y="127.6"/>
</g>
<g style="fill:rgb(0%,0%,0%);fill-opacity:1;">
  <use xlink:href="#glyph1-1" x="262.3" y="109.6"/>
  <use xlink:href="#glyph1-2" x="270.241856" y="109.6"/>
  <use xlink:href="#glyph1-3" x="275.125767" y="109.6"/>
  <use xlink:href="#glyph1-4" x="278.7887" y="109.6"/>
</g>
<g style="fill:rgb(0%,0%,0%);fill-opacity:1;">
  <use xlink:href="#glyph1-5" x="131.8" y="100.6"/>
  <use xlink:href="#glyph1-6" x="137.2999" y="100.6"/>
  <use xlink:href="#glyph1-7" x="142.183811" y="100.6"/>
  <use xlink:href="#glyph1-8" x="145.241756" y="100.6"/>
</g>
<g style="fill:rgb(0%,0%,0%);fill-opacity:1;">
  <use xlink:href="#glyph1-1" x="131.8" y="112.3"/>
  <use xlink:href="#glyph1-2" x="139.741856" y="112.3"/>
  <use xlink:href="#glyph1-3" x="144.625767" y="112.3"/>
  <use xlink:href="#glyph1-4" x="148.2887" y="112.3"/>
  <use xlink:href="#glyph1-6" x="156.846545" y="112.3"/>
  <use xlink:href="#glyph1-3" x="161.730456" y="112.3"/>
</g>
<g style="fill:rgb(0%,0%,0%);fill-opacity:1;">
  <use xlink:href="#glyph1-5" x="181.4398" y="123.1"/>
  <use xlink:href="#glyph1-6" x="186.9397" y="123.1"/>
  <use xlink:href="#glyph1-7" x="191.823611" y="123.1"/>
  <use xlink:href="#glyph1-8" x="194.881556" y="123.1"/>
</g>
<g style="fill:rgb(0%,0%,0%);fill-opacity:1;">
  <use xlink:href="#glyph1-9" x="176.55621" y="133.4801"/>
  <use xlink:href="#glyph1-10" x="181.440121" y="133.4801"/>
  <use xlink:href="#glyph1-10" x="186.940021" y="133.4801"/>
  <use xlink:href="#glyph1-11" x="192.439921" y="133.4801"/>
  <use xlink:href="#glyph1-6" x="195.497866" y="133.4801"/>
  <use xlink:href="#glyph1-3" x="200.381777" y="133.4801"/>
</g>
<g style="fill:rgb(0%,0%,0%);fill-opacity:1;">
  <use xlink:href="#glyph0-5" x="10.30021" y="115.4801"/>
  <use xlink:href="#glyph0-6" x="18.96421" y="115.4801"/>
  <use xlink:href="#glyph0-7" x="24.29221" y="115.4801"/>
  <use xlink:href="#glyph0-8" x="27.62821" y="115.4801"/>
  <use xlink:href="#glyph0-9" x="32.95621" y="115.4801"/>
</g>
<g style="fill:rgb(0%,0%,0%);fill-opacity:1;">
  <use xlink:href="#glyph0-10" x="56.63261" y="24.1"/>
  <use xlink:href="#glyph0-2" x="62.63261" y="24.1"/>
  <use xlink:href="#glyph0-7" x="68.63261" y="24.1"/>
</g>
<g style="fill:rgb(0%,0%,0%);fill-opacity:1;">
  <use xlink:href="#glyph0-11" x="50.96855" y="34.9"/>
  <use xlink:href="#glyph0-8" x="60.30455" y="34.9"/>
  <use xlink:href="#glyph0-7" x="65.63255" y="34.9"/>
  <use xlink:href="#glyph0-6" x="68.96855" y="34.9"/>
  <use xlink:href="#glyph0-3" x="74.29655" y="34.9"/>
</g>
</g>
</svg>
